HIERARCHY
ROOT root
{
	OFFSET	0	13.1	24.9
	CHANNELS 6  Xposition Yposition Zposition Xrotation Yrotation Zrotation
	JOINT spine_1
	{
		OFFSET	0	9.99999	0
		CHANNELS 3  Xrotation Yrotation Zrotation
		JOINT spine_2
		{
			OFFSET	0	112	-10
			CHANNELS 3  Xrotation Yrotation Zrotation
			JOINT spine_3
			{
				OFFSET	0	206.5	19.3
				CHANNELS 3  Xrotation Yrotation Zrotation
				JOINT spine_4
				{
					OFFSET	0	110.4	14.6
					CHANNELS 3  Xrotation Yrotation Zrotation
					JOINT neck_1
					{
						OFFSET	0	71.8	-50.3
						CHANNELS 3  Xrotation Yrotation Zrotation
						JOINT neck_2
						{
							OFFSET	0	86.2	-25.8
							CHANNELS 3  Xrotation Yrotation Zrotation
							JOINT head_ee
							{
								OFFSET	0	179.8	-8.7
								CHANNELS 3  Xrotation Yrotation Zrotation
								End Site
								{
									OFFSET	1	0	0
								}
							}
						}
					}
					JOINT left_clavicle
					{
						OFFSET	-43.2	22.4	-70.8
						CHANNELS 3  Xrotation Yrotation Zrotation
						JOINT left_shoulder
						{
							OFFSET	-93.9	-5.79999	48.7
							CHANNELS 3  Xrotation Yrotation Zrotation
							JOINT left_elbow
							{
								OFFSET	-291.4	-30.8	15.2
								CHANNELS 3  Xrotation Yrotation Zrotation
								JOINT left_lowarm_twist
								{
									OFFSET	-110.7	-3.89999	13.6
									CHANNELS 3  Xrotation Yrotation Zrotation
									JOINT left_hand
									{
										OFFSET	-110.7	-3.89999	13.6
										CHANNELS 3  Xrotation Yrotation Zrotation
										JOINT left_ee
										{
											OFFSET	-80.8	-5.10001	12.1
											CHANNELS 3  Xrotation Yrotation Zrotation
											End Site
											{
												OFFSET	1	0	0
											}
										}
									}
								}
							}
						}
					}
					JOINT right_clavicle
					{
						OFFSET	43.2	22.4	-70.8
						CHANNELS 3  Xrotation Yrotation Zrotation
						JOINT right_shoulder
						{
							OFFSET	93.9	-5.79999	48.7
							CHANNELS 3  Xrotation Yrotation Zrotation
							JOINT right_elbow
							{
								OFFSET	291.4	-30.8	15.2
								CHANNELS 3  Xrotation Yrotation Zrotation
								JOINT right_lowarm_twist
								{
									OFFSET	110.7	-3.89999	13.6
									CHANNELS 3  Xrotation Yrotation Zrotation
									JOINT right_hand
									{
										OFFSET	110.7	-3.89999	13.6
										CHANNELS 3  Xrotation Yrotation Zrotation
										JOINT right_ee
										{
											OFFSET	80.8	-5.10001	12.1
											CHANNELS 3  Xrotation Yrotation Zrotation
											End Site
											{
												OFFSET	1	0	0
											}
										}
									}
								}
							}
						}
					}
				}
			}
		}
	}
	JOINT left_hip
	{
		OFFSET	-82.8	-127.5	0.300001
		CHANNELS 3  Xrotation Yrotation Zrotation
		JOINT left_knee
		{
			OFFSET	-28.2	-396.7	2.2
			CHANNELS 3  Xrotation Yrotation Zrotation
			JOINT left_ankle
			{
				OFFSET	-11.7	-411.3	35.4
				CHANNELS 3  Xrotation Yrotation Zrotation
				JOINT left_toes
				{
					OFFSET	0	-60	-88.6
					CHANNELS 3  Xrotation Yrotation Zrotation
					JOINT left_foot_ee
					{
						OFFSET	-22.5	-16.5	-42.2
						CHANNELS 3  Xrotation Yrotation Zrotation
						End Site
						{
							OFFSET	1	0	0
						}
					}
				}
			}
		}
	}
	JOINT right_hip
	{
		OFFSET	82.8	-127.5	0.300001
		CHANNELS 3  Xrotation Yrotation Zrotation
		JOINT right_knee
		{
			OFFSET	28.2	-396.7	2.2
			CHANNELS 3  Xrotation Yrotation Zrotation
			JOINT right_ankle
			{
				OFFSET	11.7	-411.3	35.4
				CHANNELS 3  Xrotation Yrotation Zrotation
				JOINT right_toes
				{
					OFFSET	0	-60	-88.6
					CHANNELS 3  Xrotation Yrotation Zrotation
					JOINT right_foot_ee
					{
						OFFSET	22.5	-16.5	-42.2
						CHANNELS 3  Xrotation Yrotation Zrotation
						End Site
						{
							OFFSET	1	0	0
						}
					}
				}
			}
		}
	}
}
MOTION
Frames: 8
Frame Time: 0.02
2826.45 698.46 -662.864 -79.0565 -86.8971 -75.5918 3.20927 -0.782032 -4.23227 3.21909 -0.511389 -4.27335 3.25373 0.154124 -4.30103 3.22831 -0.526445 -4.27153 -4.86129 6.89151 9.7044 -4.61062 5.32027 11.0595 -0.0 0.0 -0.0 6.88769 3.07402 13.3549 13.1629 -21.0332 69.1263 3.58541 -60.6039 2.09576 -44.9206 -3.48901 4.39124 -2.19784 -4.57896 -16.9931 -0.0 0.0 -0.0 -4.39644 -12.6007 5.87055 -23.8271 3.8552 -67.8189 0.347411 9.76499 -0.0296768 37.5031 0.225802 4.70101 -4.01079 -28.478 10.627 0.0 0.0 0.0 -16.5562 -0.914647 0.047132 5.8383 -0.284057 -0.850245 41.3322 16.2741 -5.0717 -22.3323 0.0 0.0 -0.0 0.0 -0.0 28.1337 16.1016 -1.08518 3.56987 0.163383 0.523293 -10.3018 -0.387418 -1.55274 -29.8903 0.0 0.0 0.0 0.0 0.0 
2846.04 694.837 -662.287 -62.0618 -86.8555 -58.9708 3.24044 -0.786116 -4.30124 3.25059 -0.511089 -4.34244 3.28561 0.162663 -4.36933 3.25936 -0.528769 -4.34032 -3.59709 6.62776 8.91979 -3.3864 5.18504 10.2193 -0.0 0.0 -0.0 5.65455 3.39967 10.9957 13.4097 -20.2792 72.2365 3.65267 -61.0565 2.15449 -44.9544 -3.49279 4.39335 -1.90736 -5.85461 -15.5357 -0.0 0.0 -0.0 -4.17738 -12.4899 5.52378 -23.0494 3.99344 -67.5815 0.332333 9.34883 -0.0271735 38.123 0.255252 4.77461 -3.99862 -28.2213 10.7235 0.0 0.0 0.0 -17.5416 -1.15053 0.292212 5.40875 -0.260211 -0.788697 41.0741 14.6919 -5.0231 -21.2161 0.0 0.0 -0.0 0.0 -0.0 27.2068 16.3436 -0.741855 1.66076 0.071943 0.24468 -7.49028 -0.851156 -1.12295 -28.3357 0.0 0.0 0.0 0.0 0.0 
2866.98 694.552 -655.746 -52.4578 -86.4461 -49.4432 3.19259 -0.911696 -4.2651 3.20248 -0.638709 -4.31434 3.24715 0.0347964 -4.36113 3.22121 -0.653749 -4.31209 -3.50652 5.61333 8.73947 -3.30345 3.45696 9.88579 -0.0 0.0 -0.0 5.00832 2.60063 9.75225 12.3888 -19.7736 74.2496 3.48557 -59.9078 2.00907 -46.9241 -3.71578 4.51244 -1.5129 -7.27123 -13.4191 -0.0 0.0 -0.0 -3.91839 -12.4698 5.08935 -21.9129 4.65715 -67.6712 0.364835 10.2446 -0.0327039 38.1379 0.255971 4.77638 -3.88676 -28.0625 10.2045 0.0 0.0 0.0 -18.5434 -0.824212 0.237218 4.76247 -0.225208 -0.695769 39.3461 13.9657 -4.85904 -20.4932 0.0 0.0 -0.0 0.0 -0.0 26.8704 16.523 -1.03519 -0.43816 -0.0177939 -0.0648859 -4.40552 -1.51915 -0.655794 -25.9 0.0 0.0 0.0 0.0 0.0 
2887.18 695.619 -650.005 -49.7627 -86.5252 -46.8033 3.21019 -0.828635 -4.22269 3.21993 -0.558506 -4.26675 3.25807 0.106092 -4.30178 3.23271 -0.573996 -4.2647 -2.28412 5.38753 8.47802 -2.09447 3.0341 9.61024 -0.0 0.0 -0.0 4.18239 1.5583 8.13998 11.165 -19.6625 76.3728 3.31858 -58.6743 1.86549 -47.5754 -3.7904 4.55012 -1.27742 -7.27513 -11.7924 -0.0 0.0 -0.0 -3.61916 -12.5334 4.57028 -21.1428 4.6947 -67.645 0.398248 11.1602 -0.0389092 38.2756 0.262625 4.79268 -3.81529 -27.9798 9.86047 0.0 0.0 0.0 -19.5027 -1.2446 0.361181 4.15799 -0.193421 -0.608505 36.3945 15.2628 -4.59921 -19.9894 0.0 0.0 -0.0 0.0 -0.0 26.285 16.4842 -1.09632 -2.46677 -0.0936777 -0.366948 -1.58088 -2.05979 -0.233653 -24.9647 0.0 0.0 0.0 0.0 0.0 
2912.36 693.519 -639.713 -51.1372 -86.8339 -48.2771 3.19227 -0.657944 -4.19073 3.20196 -0.390187 -4.22402 3.22726 0.26854 -4.23348 3.20249 -0.402818 -4.22284 -1.62487 5.33633 8.86986 -1.41745 2.51032 10.0376 -0.0 0.0 -0.0 3.19947 1.68807 6.27127 9.95779 -19.4269 78.3201 3.03119 -56.3258 1.62305 -47.7547 -3.81101 4.56035 -0.959219 -8.78314 -10.2601 -0.0 0.0 -0.0 -3.37658 -13.3372 3.99997 -19.8228 5.28699 -67.9266 0.427724 11.9632 -0.044817 38.4722 0.27219 4.81592 -4.10647 -27.1771 11.9966 0.0 0.0 0.0 -20.1096 -1.31256 -0.0842627 0.973515 -0.0413104 -0.143677 37.7351 18.2509 -4.77789 -18.6677 0.0 0.0 -0.0 0.0 -0.0 26.097 16.6882 -2.04962 -6.78495 -0.219308 -1.01759 8.73731 -1.16063 1.2561 -24.2057 0.0 0.0 0.0 0.0 0.0 
2928.51 701.338 -636.202 -53.7225 -86.8829 -50.8698 3.16777 -0.551673 -4.19461 3.17751 -0.283884 -4.22115 3.19497 0.375783 -4.21398 3.17031 -0.293842 -4.22047 -1.16589 4.34231 8.20936 -0.98567 1.17924 9.23772 -0.0 0.0 -0.0 2.72975 -0.20869 5.24481 7.8241 -19.4955 79.4374 2.77653 -53.9708 1.41403 -48.9871 -3.95356 4.62888 -0.659923 -8.81173 -8.22538 -0.0 0.0 -0.0 -3.0359 -13.7321 3.35773 -17.8349 6.37656 -67.8924 0.486606 13.5528 -0.0578215 38.8089 0.288766 4.85567 -3.86043 -26.7395 10.8857 0.0 0.0 0.0 -18.6068 -1.31322 0.0574749 -1.53782 0.060258 0.2283 37.2193 22.0555 -4.81136 -18.0901 0.0 0.0 -0.0 0.0 -0.0 25.13 16.7967 -2.6408 -6.80195 -0.219706 -1.02017 9.05881 -2.52633 1.29756 -22.5293 0.0 0.0 0.0 0.0 0.0 
2942.24 702.684 -628.235 -39.2607 -86.6828 -35.8665 3.07098 -0.580208 -4.20351 3.08076 -0.311797 -4.23184 3.10059 0.356777 -4.22829 3.07578 -0.314865 -4.23161 0.118016 4.1887 8.02928 0.289753 0.853347 9.08823 -0.0 0.0 -0.0 2.18052 -1.86667 4.04726 5.95772 -20.0952 80.5261 2.53026 -51.4081 1.21811 -48.9161 -3.94531 4.62502 -0.480378 -8.70423 -6.95635 -0.0 0.0 -0.0 -2.78041 -14.2103 2.84739 -16.3381 6.51917 -68.7868 0.516336 14.3476 -0.0649889 39.1095 0.303758 4.89106 -3.79393 -26.3833 10.7311 0.0 0.0 0.0 -17.6222 -1.07153 -1.92028 -3.13419 0.116297 0.466879 36.6391 22.7308 -4.7703 -17.8631 0.0 0.0 -0.0 0.0 -0.0 24.2422 17.006 -3.73101 -8.1559 -0.248894 -1.22588 11.4868 -1.91713 1.63273 -22.0199 0.0 0.0 0.0 0.0 0.0 
2966.46 710.683 -618.968 -27.9066 -87.4244 -24.8767 2.86384 -0.4634 -3.99201 2.87268 -0.208649 -4.01336 2.88486 0.439572 -3.9947 2.86265 -0.196308 -4.01398 0.330225 3.06001 8.44196 0.535635 -1.52568 9.43741 -0.0 0.0 -0.0 1.97027 -2.91026 3.54443 3.1872 -19.4886 80.8187 2.17094 -47.0751 0.945735 -47.847 -3.82164 4.56559 -0.444187 -7.26568 -6.09281 -0.0 0.0 -0.0 -2.57443 -14.1954 2.51351 -14.3143 7.34399 -69.3947 0.670068 18.3627 -0.108305 39.8071 0.339267 4.9729 -3.80453 -26.49 10.7251 0.0 0.0 0.0 -16.1407 -0.7629 -2.10461 -7.22847 0.229425 1.0849 35.6425 25.7366 -4.75161 -17.5428 0.0 0.0 -0.0 0.0 -0.0 21.8484 17.6137 -4.65682 -9.44052 -0.272084 -1.42164 20.499 -2.11885 2.80282 -21.5401 0.0 0.0 0.0 0.0 0.0 
